{
    "asset" : {
        "generator" : "Khronos glTF Blender I/O v3.2.43",
        "version" : "2.0"
    },
    "scene" : 0,
    "scenes" : [
        {
            "name" : "Scene",
            "nodes" : [
                7
            ]
        }
    ],
    "nodes" : [
        {
            "name" : "node_id30",
            "scale" : [
                217.78402709960938,
                217.78402709960938,
                217.78402709960938
            ],
            "translation" : [
                0.00012169630645075813,
                28.316757202148438,
                256
            ]
        },
        {
            "mesh" : 0,
            "name" : "node_id34",
            "scale" : [
                1.204852819442749,
                1.204852819442749,
                1.204852819442749
            ]
        },
        {
            "mesh" : 1,
            "name" : "node_id36",
            "scale" : [
                1.204852819442749,
                1.204852819442749,
                1.204852819442749
            ],
            "translation" : [
                0,
                0,
                -0.03185628354549408
            ]
        },
        {
            "children" : [
                1,
                2
            ],
            "name" : "node_id33"
        },
        {
            "children" : [
                3
            ],
            "name" : "node_id32"
        },
        {
            "children" : [
                4
            ],
            "name" : "node_id31",
            "rotation" : [
                0,
                0.7071067094802856,
                -0.7071068286895752,
                0
            ],
            "scale" : [
                -4355.6796875,
                -4355.68115234375,
                -4355.68115234375
            ],
            "translation" : [
                0.00012169630645075813,
                28.316757202148438,
                256
            ]
        },
        {
            "children" : [
                0,
                5
            ],
            "name" : "node_id38",
            "scale" : [
                0.0010000000474974513,
                0.0010000000474974513,
                0.0010000000474974513
            ]
        },
        {
            "children" : [
                6
            ],
            "name" : "root",
            "translation" : [
                0,
                0.14310818910598755,
                -0.25446757674217224
            ]
        }
    ],
    "materials" : [
        {
            "alphaCutoff" : 0.5,
            "alphaMode" : "MASK",
            "doubleSided" : true,
            "name" : "59",
            "pbrMetallicRoughness" : {
                "baseColorFactor" : [
                    0.33731725811958313,
                    0.1112869530916214,
                    0.03966093435883522,
                    1
                ],
                "metallicFactor" : 0,
                "roughnessFactor" : 0.5
            }
        },
        {
            "alphaCutoff" : 0.5,
            "alphaMode" : "MASK",
            "doubleSided" : true,
            "name" : "61",
            "pbrMetallicRoughness" : {
                "baseColorFactor" : [
                    0.33731725811958313,
                    0.1112869530916214,
                    0.03966093435883522,
                    1
                ],
                "metallicFactor" : 0,
                "roughnessFactor" : 0.5
            }
        }
    ],
    "meshes" : [
        {
            "name" : "mesh_id35",
            "primitives" : [
                {
                    "attributes" : {
                        "POSITION" : 0,
                        "NORMAL" : 1,
                        "TEXCOORD_0" : 2,
                        "COLOR_0" : 3
                    },
                    "indices" : 4,
                    "material" : 0
                }
            ]
        },
        {
            "name" : "mesh_id37",
            "primitives" : [
                {
                    "attributes" : {
                        "POSITION" : 5,
                        "NORMAL" : 6,
                        "TEXCOORD_0" : 7,
                        "COLOR_0" : 8
                    },
                    "indices" : 9,
                    "material" : 1
                }
            ]
        }
    ],
    "accessors" : [
        {
            "bufferView" : 0,
            "componentType" : 5126,
            "count" : 474,
            "max" : [
                0.048742927610874176,
                0.03475270792841911,
                0.02190108597278595
            ],
            "min" : [
                -0.048742927610874176,
                -0.03475270792841911,
                -0.021901091560721397
            ],
            "type" : "VEC3"
        },
        {
            "bufferView" : 1,
            "componentType" : 5126,
            "count" : 474,
            "type" : "VEC3"
        },
        {
            "bufferView" : 2,
            "componentType" : 5126,
            "count" : 474,
            "type" : "VEC2"
        },
        {
            "bufferView" : 3,
            "componentType" : 5123,
            "count" : 474,
            "normalized" : true,
            "type" : "VEC4"
        },
        {
            "bufferView" : 4,
            "componentType" : 5123,
            "count" : 1080,
            "type" : "SCALAR"
        },
        {
            "bufferView" : 5,
            "componentType" : 5126,
            "count" : 114,
            "max" : [
                0.04878091812133789,
                0.03546816110610962,
                0.006252642720937729
            ],
            "min" : [
                -0.04878091812133789,
                -0.03546816110610962,
                -0.006252645514905453
            ],
            "type" : "VEC3"
        },
        {
            "bufferView" : 6,
            "componentType" : 5126,
            "count" : 114,
            "type" : "VEC3"
        },
        {
            "bufferView" : 7,
            "componentType" : 5126,
            "count" : 114,
            "type" : "VEC2"
        },
        {
            "bufferView" : 8,
            "componentType" : 5123,
            "count" : 114,
            "normalized" : true,
            "type" : "VEC4"
        },
        {
            "bufferView" : 9,
            "componentType" : 5123,
            "count" : 576,
            "type" : "SCALAR"
        }
    ],
    "bufferViews" : [
        {
            "buffer" : 0,
            "byteLength" : 5688,
            "byteOffset" : 0
        },
        {
            "buffer" : 0,
            "byteLength" : 5688,
            "byteOffset" : 5688
        },
        {
            "buffer" : 0,
            "byteLength" : 3792,
            "byteOffset" : 11376
        },
        {
            "buffer" : 0,
            "byteLength" : 3792,
            "byteOffset" : 15168
        },
        {
            "buffer" : 0,
            "byteLength" : 2160,
            "byteOffset" : 18960
        },
        {
            "buffer" : 0,
            "byteLength" : 1368,
            "byteOffset" : 21120
        },
        {
            "buffer" : 0,
            "byteLength" : 1368,
            "byteOffset" : 22488
        },
        {
            "buffer" : 0,
            "byteLength" : 912,
            "byteOffset" : 23856
        },
        {
            "buffer" : 0,
            "byteLength" : 912,
            "byteOffset" : 24768
        },
        {
            "buffer" : 0,
            "byteLength" : 1152,
            "byteOffset" : 25680
        }
    ],
    "buffers" : [
        {
            "byteLength" : 26832,
            "uri" : "data:application/octet-stream;base64,"
        }
    ]
}
